<svg xmlns="http://www.w3.org/2000/svg" width="25" height="25" viewBox="0 0 25 25" fill="none">
<rect width="25" height="25" rx="12.5" fill="#FBBB19"/>
<mask id="mask0" mask-type="alpha" maskUnits="userSpaceOnUse" x="0" y="0" width="25" height="25">
<rect width="25" height="25" rx="12.5" fill="#F9BA34"/>
</mask>
<g mask="url(#mask0)">
<path fill-rule="evenodd" clip-rule="evenodd" d="M20.5388 25.9568L23.9377 29.3557L32.9166 21.4417L19.5 8.0251L13.9414 9.41185L13.9414 10.9412L10.5 7.49979L8.49999 17.4998H3.49999L15.3717 29.3715L20.15 26.4162L20.5388 25.9568ZM19.0163 16.0161L19.0902 15.9674L18.6438 15.6436L19.0163 16.0161Z" fill="#DB9E00"/>
<path d="M14.1557 15.3976C14.7059 16.2411 15.4217 16.861 16.6876 16.861C17.7511 16.861 18.4304 16.362 18.4304 15.6724C18.4304 14.8461 17.7324 14.5534 16.5619 14.0726L15.9202 13.8141C14.0682 13.0733 12.8378 12.1451 12.8378 10.1831C12.8378 8.37568 14.3044 6.99979 16.5966 6.99979C18.2284 6.99979 19.4015 7.53305 20.2469 8.9293L18.2483 10.1342C17.8083 9.39335 17.3336 9.10149 16.5966 9.10149C15.8448 9.10149 15.3683 9.54926 15.3683 10.1342C15.3683 10.8572 15.8452 11.1499 16.9464 11.5976L17.5881 11.8557C19.7687 12.7338 21 13.6289 21 15.6415C21 17.8111 19.1848 18.9998 16.747 18.9998C14.3634 18.9998 12.8235 17.9333 12.07 16.5354L14.1557 15.3976ZM5.0892 15.6065C5.49239 16.2781 5.85916 16.846 6.74097 16.846C7.5842 16.846 8.11615 16.5362 8.11615 15.3317V7.13737H10.6827V15.3642C10.6827 17.8596 9.12456 18.9953 6.85022 18.9953C4.79526 18.9953 3.6052 17.9968 2.99999 16.7941L5.0892 15.6065Z" fill="#121212"/>
</g>
</svg>
